0
SECTION
2
HEADER
9
$INSUNITS
70
4
9
$ACADVER
1
AC1014
9
$HANDSEED
5
FFFF
0
ENDSEC
0
SECTION
2
TABLES
0
TABLE
2
VPORT
5
8
100
AcDbSymbolTable
0
ENDTAB
0
TABLE
2
LTYPE
5
5
100
AcDbSymbolTable
0
LTYPE
5
14
100
AcDbSymbolTableRecord
100
AcDbLinetypeTableRecord
2
BYBLOCK
70
0
0
LTYPE
5
15
100
AcDbSymbolTableRecord
100
AcDbLinetypeTableRecord
2
BYLAYER
70
0
0
ENDTAB
0
TABLE
2
LAYER
5
2
100
AcDbSymbolTable
70
2
0
LAYER
5
50
100
AcDbSymbolTableRecord
100
AcDbLayerTableRecord
2
0
70
0
6
CONTINUOUS
0
ENDTAB
0
TABLE
2
STYLE
5
3
100
AcDbSymbolTable
70
1
0
STYLE
5
11
100
AcDbSymbolTableRecord
100
AcDbTextStyleTableRecord
2
STANDARD
70
0
0
ENDTAB
0
TABLE
2
VIEW
5
6
100
AcDbSymbolTable
70
0
0
ENDTAB
0
TABLE
2
UCS
5
7
100
AcDbSymbolTable
70
0
0
ENDTAB
0
TABLE
2
APPID
5
9
100
AcDbSymbolTable
70
2
0
APPID
5
12
100
AcDbSymbolTableRecord
100
AcDbRegAppTableRecord
2
ACAD
70
0
0
ENDTAB
0
TABLE
2
DIMSTYLE
5
A
100
AcDbSymbolTable
70
1
0
ENDTAB
0
TABLE
2
BLOCK_RECORD
5
1
100
AcDbSymbolTable
70
1
0
BLOCK_RECORD
5
1F
100
AcDbSymbolTableRecord
100
AcDbBlockTableRecord
2
*MODEL_SPACE
0
BLOCK_RECORD
5
1B
100
AcDbSymbolTableRecord
100
AcDbBlockTableRecord
2
*PAPER_SPACE
0
ENDTAB
0
ENDSEC
0
SECTION
2
BLOCKS
0
BLOCK
5
20
100
AcDbEntity
100
AcDbBlockBegin
2
*MODEL_SPACE
0
ENDBLK
5
21
100
AcDbEntity
100
AcDbBlockEnd
0
BLOCK
5
1C
100
AcDbEntity
100
AcDbBlockBegin
2
*PAPER_SPACE
0
ENDBLK
5
1D
100
AcDbEntity
100
AcDbBlockEnd
0
ENDSEC
0
SECTION
2
ENTITIES
0
CIRCLE
5
100
100
AcDbEntity
8
0
100
AcDbCircle
10
-7.3605074309036658
20
27.929999999999964
30
0
40
0.47499999999999998
210
0
220
-0
230
1
0
CIRCLE
5
101
100
AcDbEntity
8
0
100
AcDbCircle
10
-7.3605074309036649
20
31.469999999999967
30
0
40
0.47499999999999998
210
0
220
-0
230
1
0
CIRCLE
5
102
100
AcDbEntity
8
0
100
AcDbCircle
10
-10.900507430903666
20
31.469999999999967
30
0
40
0.47499999999999998
210
0
220
-0
230
1
0
CIRCLE
5
103
100
AcDbEntity
8
0
100
AcDbCircle
10
-9.1305074309036591
20
29.699999999999982
30
0
40
0.50000000000000044
210
0
220
0
230
1
0
CIRCLE
5
104
100
AcDbEntity
8
0
100
AcDbCircle
10
21.669492569096459
20
-6.7000000000000037
30
0
40
1.3499999999999979
210
0
220
0
230
1
0
CIRCLE
5
105
100
AcDbEntity
8
0
100
AcDbCircle
10
-9.1305074309041849
20
-38.050000000000033
30
0
40
1.3500000000000001
210
0
220
0
230
1
0
CIRCLE
5
106
100
AcDbEntity
8
0
100
AcDbCircle
10
-46.107143779403295
20
-18.656467751093512
30
0
40
1.3499999999999979
210
0
220
0
230
1
0
LWPOLYLINE
5
107
100
AcDbEntity
8
0
100
AcDbPolyline
90
4
70
1
43
0.0
10
-12.630507430903698
20
-10.550000000000026
10
-12.630507430903698
20
-3.5500000000000256
10
-5.6305074309036929
20
-3.5500000000000256
10
-5.6305074309036973
20
-10.550000000000026
0
CIRCLE
5
108
100
AcDbEntity
8
0
100
AcDbCircle
10
15.869492569095653
20
34.199999999999974
30
0
40
1.3500000000000001
210
0
220
0
230
1
0
LWPOLYLINE
5
109
100
AcDbEntity
8
0
100
AcDbPolyline
90
4
70
1
43
0.0
10
-12.630507430903709
20
-28.050000000000033
10
-12.630507430903709
20
-21.050000000000033
10
-5.6305074309037018
20
-21.050000000000033
10
-5.6305074309037062
20
-28.050000000000033
0
LWPOLYLINE
5
110
100
AcDbEntity
8
0
100
AcDbPolyline
90
4
70
1
43
0.0
10
4.8694925690963036
20
-31.800000000000018
10
4.8694925690963036
20
-24.800000000000018
10
11.869492569096302
20
-24.800000000000018
10
11.869492569096302
20
-31.800000000000018
0
LWPOLYLINE
5
111
100
AcDbEntity
8
0
100
AcDbPolyline
90
4
70
1
43
0.0
10
-30.130507430903691
20
-24.800000000000004
10
-23.130507430903688
20
-24.800000000000004
10
-23.130507430903688
20
-31.800000000000004
10
-30.130507430903691
20
-31.800000000000004
0
CIRCLE
5
112
100
AcDbEntity
8
0
100
AcDbCircle
10
-41.713745497201479
20
29.806601717798205
30
0
40
1.3499999999999979
210
0
220
0
230
1
0
LWPOLYLINE
5
113
100
AcDbEntity
8
0
100
AcDbPolyline
90
25
70
1
43
0.0
10
22.669492569096455
20
-43.05000000000004
42
0.41421356237309243
10
24.669492569096455
20
-41.05000000000004
10
24.669492569096455
20
-2.7000000000000135
42
0.41421356237309631
10
23.669492569096462
20
-1.7000000000000082
10
-5.5176458939294992
20
-1.7000000000000011
42
-0.4142135623730947
10
-10.517645893929499
20
3.3000000000000016
10
-10.517645893929499
20
21.299999999999997
42
-0.41421356237309515
10
-5.5176458939294983
20
26.299999999999997
10
27.792365902201265
20
26.299999999999997
42
0.56839736316250467
10
28.671556313060407
20
27.77647058823533
42
0.27518704569052216
10
12.846128917594566
20
37.199999999999982
10
-31.107143779403263
20
37.199999999999982
42
0.41421356237309581
10
-49.107143779403245
20
19.199999999999978
10
-49.107143779403273
20
-1.6564677510935111
42
0.41421356237309453
10
-47.107143779403273
20
-3.6564677510935093
10
-31.107143779403273
20
-3.6564677510935106
42
-0.41421356237309503
10
-29.10714377940327
20
-5.656467751093512
10
-29.107143779403273
20
-11.656467751093514
42
-0.41421356237309503
10
-31.107143779403273
20
-13.656467751093512
10
-47.450289529910904
20
-13.656467751093512
42
0.31783724519578155
10
-49.335907613075022
20
-14.989801084426846
42
-0.18009708364070717
10
-51.125834700603633
20
-17.131293550218714
42
0.26939322429971968
10
-51.630507430903727
20
-18.000000000000021
10
-51.63050743090372
20
-41.050000000000026
42
0.41421356237309115
10
-49.630507430903712
20
-43.050000000000011
0
ENDSEC
0
SECTION
2
OBJECTS
0
DICTIONARY
5
C
100
AcDbDictionary
3
ACAD_GROUP
350
D
3
ACAD_MLINESTYLE
350
17
0
DICTIONARY
5
D
100
AcDbDictionary
0
DICTIONARY
5
1A
330
C
100
AcDbDictionary
0
DICTIONARY
5
17
100
AcDbDictionary
0
ENDSEC
0
EOF
